<svg id="Fixing_sizes" data-name="Fixing sizes" xmlns="http://www.w3.org/2000/svg" xmlns:xlink="http://www.w3.org/1999/xlink" viewBox="0 0 29.7 29.7"><defs><style>.cls-1{fill:url(#linear-gradient);}.cls-2{fill:url(#linear-gradient-2);}.cls-3{fill:url(#linear-gradient-3);}.cls-4{fill:url(#linear-gradient-4);}.cls-5{fill:url(#linear-gradient-5);}.cls-6{fill:url(#linear-gradient-6);}.cls-7{fill:url(#linear-gradient-7);}.cls-8{fill:url(#linear-gradient-8);}.cls-9{fill:#fff;}.cls-10{fill:url(#linear-gradient-9);}.cls-11{fill:url(#linear-gradient-10);}.cls-12{fill:url(#linear-gradient-11);}.cls-13{fill:url(#linear-gradient-12);}.cls-14{fill:#9e1209;}.cls-15{fill:url(#radial-gradient);}.cls-16{fill:url(#radial-gradient-2);}.cls-17{fill:url(#linear-gradient-13);}.cls-18{fill:url(#linear-gradient-14);}</style><linearGradient id="linear-gradient" x1="937.02" y1="1690.77" x2="932.7" y2="1698.4" gradientTransform="matrix(1, 0, 0, -1, -915.98, 1716.96)" gradientUnits="userSpaceOnUse"><stop offset="0" stop-color="#fb7655"/><stop offset="0.41" stop-color="#e42b1e"/><stop offset="0.99" stop-color="#900"/><stop offset="1" stop-color="#900"/></linearGradient><linearGradient id="linear-gradient-2" x1="939.17" y1="1697.18" x2="933.6" y2="1700.91" gradientTransform="matrix(1, 0, 0, -1, -915.98, 1716.96)" gradientUnits="userSpaceOnUse"><stop offset="0" stop-color="#871101"/><stop offset="0.99" stop-color="#911209"/><stop offset="1" stop-color="#911209"/></linearGradient><linearGradient id="linear-gradient-3" x1="934.71" y1="1690.54" x2="929.15" y2="1694.27" xlink:href="#linear-gradient-2"/><linearGradient id="linear-gradient-4" x1="923.03" y1="1699.88" x2="923.89" y2="1694.27" gradientTransform="matrix(1, 0, 0, -1, -915.98, 1716.96)" gradientUnits="userSpaceOnUse"><stop offset="0" stop-color="#fff"/><stop offset="0.23" stop-color="#e57252"/><stop offset="0.46" stop-color="#de3b20"/><stop offset="0.99" stop-color="#a60003"/><stop offset="1" stop-color="#a60003"/></linearGradient><linearGradient id="linear-gradient-5" x1="928.96" y1="1705.12" x2="929.28" y2="1699.39" gradientTransform="matrix(1, 0, 0, -1, -915.98, 1716.96)" gradientUnits="userSpaceOnUse"><stop offset="0" stop-color="#fff"/><stop offset="0.23" stop-color="#e4714e"/><stop offset="0.56" stop-color="#be1a0d"/><stop offset="0.99" stop-color="#a80d00"/><stop offset="1" stop-color="#a80d00"/></linearGradient><linearGradient id="linear-gradient-6" x1="934.23" y1="1710.41" x2="935.18" y2="1706.3" gradientTransform="matrix(1, 0, 0, -1, -915.98, 1716.96)" gradientUnits="userSpaceOnUse"><stop offset="0" stop-color="#fff"/><stop offset="0.18" stop-color="#e46342"/><stop offset="0.4" stop-color="#c82410"/><stop offset="0.99" stop-color="#a80d00"/><stop offset="1" stop-color="#a80d00"/></linearGradient><linearGradient id="linear-gradient-7" x1="931.32" y1="1711.8" x2="935.43" y2="1713.85" gradientTransform="matrix(1, 0, 0, -1, -915.98, 1716.96)" gradientUnits="userSpaceOnUse"><stop offset="0" stop-color="#fff"/><stop offset="0.54" stop-color="#c81f11"/><stop offset="0.99" stop-color="#bf0905"/><stop offset="1" stop-color="#bf0905"/></linearGradient><linearGradient id="linear-gradient-8" x1="919.43" y1="1701.31" x2="919.77" y2="1697.93" gradientTransform="matrix(1, 0, 0, -1, -915.98, 1716.96)" gradientUnits="userSpaceOnUse"><stop offset="0" stop-color="#fff"/><stop offset="0.31" stop-color="#de4024"/><stop offset="0.99" stop-color="#bf190b"/><stop offset="1" stop-color="#bf190b"/></linearGradient><linearGradient id="linear-gradient-9" x1="917.11" y1="1697.02" x2="932.98" y2="1713.33" gradientTransform="matrix(1, 0, 0, -1, -915.98, 1716.96)" gradientUnits="userSpaceOnUse"><stop offset="0" stop-color="#bd0012"/><stop offset="0.07" stop-color="#fff"/><stop offset="0.17" stop-color="#fff"/><stop offset="0.27" stop-color="#c82f1c"/><stop offset="0.33" stop-color="#820c01"/><stop offset="0.46" stop-color="#a31601"/><stop offset="0.72" stop-color="#b31301"/><stop offset="0.99" stop-color="#e82609"/><stop offset="1" stop-color="#e82609"/></linearGradient><linearGradient id="linear-gradient-10" x1="929.27" y1="1695.37" x2="924.49" y2="1696.55" gradientTransform="matrix(1, 0, 0, -1, -915.98, 1716.96)" gradientUnits="userSpaceOnUse"><stop offset="0" stop-color="#8c0c01"/><stop offset="0.54" stop-color="#990c00"/><stop offset="0.99" stop-color="#a80d0e"/><stop offset="1" stop-color="#a80d0e"/></linearGradient><linearGradient id="linear-gradient-11" x1="937.48" y1="1701.11" x2="933.23" y2="1704.91" gradientTransform="matrix(1, 0, 0, -1, -915.98, 1716.96)" gradientUnits="userSpaceOnUse"><stop offset="0" stop-color="#7e110b"/><stop offset="0.99" stop-color="#9e0c00"/><stop offset="1" stop-color="#9e0c00"/></linearGradient><linearGradient id="linear-gradient-12" x1="939.04" y1="1708.09" x2="936.92" y2="1710.35" gradientTransform="matrix(1, 0, 0, -1, -915.98, 1716.96)" gradientUnits="userSpaceOnUse"><stop offset="0" stop-color="#79130d"/><stop offset="0.99" stop-color="#9e120b"/><stop offset="1" stop-color="#9e120b"/></linearGradient><radialGradient id="radial-gradient" cx="933.89" cy="1704.84" r="5.2" gradientTransform="matrix(1, 0, 0, -1, -915.98, 1716.96)" gradientUnits="userSpaceOnUse"><stop offset="0" stop-color="#a80d00"/><stop offset="0.99" stop-color="#7e0e08"/><stop offset="1" stop-color="#7e0e08"/></radialGradient><radialGradient id="radial-gradient-2" cx="926.69" cy="1697.98" r="6.92" gradientTransform="matrix(1, 0, 0, -1, -915.98, 1716.96)" gradientUnits="userSpaceOnUse"><stop offset="0" stop-color="#a30c00"/><stop offset="0.99" stop-color="#800e08"/><stop offset="1" stop-color="#800e08"/></radialGradient><linearGradient id="linear-gradient-13" x1="921.79" y1="1692.65" x2="920.06" y2="1698.5" gradientTransform="matrix(1, 0, 0, -1, -915.98, 1716.96)" gradientUnits="userSpaceOnUse"><stop offset="0" stop-color="#8b2114"/><stop offset="0.43" stop-color="#9e100a"/><stop offset="0.99" stop-color="#b3100c"/><stop offset="1" stop-color="#b3100c"/></linearGradient><linearGradient id="linear-gradient-14" x1="935.01" y1="1712.03" x2="938.87" y2="1710.32" gradientTransform="matrix(1, 0, 0, -1, -915.98, 1716.96)" gradientUnits="userSpaceOnUse"><stop offset="0" stop-color="#b31000"/><stop offset="0.44" stop-color="#910f08"/><stop offset="0.99" stop-color="#791c12"/><stop offset="1" stop-color="#791c12"/></linearGradient></defs><title>_02_languages logos [Recovered]</title><polygon id="polygon3282" class="cls-1" points="20.38 18.2 8.69 25.13 23.82 24.12 25 8.86 20.38 18.2"/><polygon id="polygon3293" class="cls-2" points="23.85 24.11 22.55 15.13 19.01 19.8 23.85 24.11"/><polygon id="polygon3304" class="cls-3" points="23.86 24.11 14.34 23.35 8.74 25.11 23.86 24.11"/><polygon id="polygon3319" class="cls-4" points="8.75 25.11 11.14 17.32 5.9 18.43 8.75 25.11"/><polygon id="polygon3334" class="cls-5" points="19 19.83 16.82 11.25 10.55 17.12 19 19.83"/><polygon id="polygon3349" class="cls-6" points="24.5 11.37 18.58 6.53 16.93 11.86 24.5 11.37"/><polygon id="polygon3362" class="cls-7" points="21.74 4.86 18.25 6.78 16.05 4.83 21.74 4.86"/><polygon id="polygon3375" class="cls-8" points="4.52 21.05 5.98 18.39 4.8 15.21 4.52 21.05"/><path id="path3377" class="cls-9" d="M4.72,15.11l1.19,3.37,5.16-1.15L17,11.86l1.67-5.28L16,4.72,11.57,6.38c-1.4,1.3-4.13,3.88-4.23,3.93S5.54,13.58,4.72,15.11Z"/><path id="path3400" class="cls-10" d="M8.9,9.06c3-3,7-4.79,8.47-3.27S17.27,11,14.23,14,7.31,18.9,5.81,17.38,5.86,12.07,8.9,9.06Z"/><path id="path3413" class="cls-11" d="M8.75,25.11l2.37-7.82L19,19.82C16.12,22.47,13,24.72,8.75,25.11Z"/><path id="path3424" class="cls-12" d="M17,11.84l2,8a22.2,22.2,0,0,0,5.54-8.48Z"/><path id="path3435" class="cls-13" d="M24.51,11.38c.81-2.43,1-5.92-2.8-6.57L18.59,6.53Z"/><path id="path3437" class="cls-14" d="M4.52,21c.11,4,3,4.08,4.24,4.11L5.91,18.47Z"/><path id="path3448" class="cls-15" d="M17,11.85l5.56,3.41a12.83,12.83,0,0,0,1.92-3.91Z"/><path id="path3459" class="cls-16" d="M11.12,17.29l3.15,6.1a20.42,20.42,0,0,0,4.67-3.56Z"/><path id="path3472" class="cls-17" d="M5.9,18.48,5.45,23.8A3.26,3.26,0,0,0,8.67,25C7.79,22.77,6,18.39,5.9,18.48Z"/><path id="path3485" class="cls-18" d="M18.57,6.54l6.27.89a3.43,3.43,0,0,0-3.11-2.62Z"/></svg>